Coordinates
version=1
nRows=16
nColumns=36
inDegrees=yes

Units are S.I. units (second, meters, Newtons, ...)
If the header above contains a line with 'inDegrees', this indicates whether rotational values are in degrees (yes) or radians (no).

endheader
time	pelvis_tilt	pelvis_list	pelvis_rotation	pelvis_tx	pelvis_ty	pelvis_tz	hip_flexion_r	hip_adduction_r	hip_rotation_r	knee_angle_r	knee_angle_r_beta	ankle_angle_r	subtalar_angle_r	mtp_angle_r	hip_flexion_l	hip_adduction_l	hip_rotation_l	knee_angle_l	knee_angle_l_beta	ankle_angle_l	subtalar_angle_l	mtp_angle_l	lumbar_extension	lumbar_bending	lumbar_rotation	arm_flex_r	arm_add_r	arm_rot_r	elbow_flex_r	pro_sup_r	arm_flex_l	arm_add_l	arm_rot_l	elbow_flex_l	pro_sup_l
      0.00000000	      1.19961288	     -3.50374523	      2.66997025	      0.28345875	      0.86519618	     -0.15669452	      8.77211963	     -4.23071093	     -7.28395658	     27.26104857	      0.47579506	     -3.84479504	    -20.58588052	     -6.88508797	      1.16554639	      1.36220372	     -5.73599442	      9.30171905	      0.16234562	     11.17642308	     -3.30993676	     -6.88508797	     -6.35841988	     -0.15884364	      5.55290473	     74.24445324	      7.39025854	     66.48095591	    126.03240743	     92.51514040	     66.51168435	     12.37611035	     58.62019524	    119.34346438	     95.38978638
      0.01666670	     -0.78395183	     -3.31413184	      3.14613576	      0.28697227	      0.85918139	     -0.15662088	     11.00254335	     -4.80313449	     -7.83684055	     26.96936050	      0.47070414	     -0.74698036	    -16.84607730	     -7.03910322	      2.84390283	      2.23122242	     -7.51108529	      8.68654298	      0.15160878	     11.12827110	     -2.08501572	     -7.03910322	     -4.37336067	     -0.77819266	      4.39408772	     79.92915826	      7.15708817	     63.49070801	    126.18174788	    100.58876387	     71.08397752	     10.90620090	     54.89930022	    122.04863549	     87.01548239
      0.03333330	     -1.41635314	     -2.46019738	      2.57174982	      0.28915891	      0.86279666	     -0.15664160	     11.54209542	     -5.79383346	     -7.50015426	     26.14119626	      0.45624995	      0.87156590	    -15.65122593	     -7.05501738	      3.24695691	      3.30839069	     -9.41750617	      8.53820280	      0.14901975	     10.47756889	     -0.98111521	     -7.05501738	     -3.00654970	     -2.01202454	      4.60027859	     81.84251030	      7.41918284	     63.27441692	    126.01059067	    100.70500874	     71.15127888	      8.29846634	     55.91514406	    120.97958454	     86.15423945
      0.05000000	     -1.57814866	     -2.00493486	      2.34356016	      0.28943723	      0.85781825	     -0.15770870	     12.05196105	     -6.27231370	     -6.87633678	     26.24525264	      0.45806607	      1.99270677	    -15.59942581	     -7.06721689	      3.18694453	      4.10890460	     -9.71580750	      8.11286076	      0.14159613	     10.11311389	     -0.75695868	     -7.06721689	     -2.57182938	     -2.93060979	      4.23897478	     82.62443331	      7.53680183	     65.13232802	    125.28428405	    101.04455716	     71.00546549	      7.59567776	     56.76218996	    121.57164024	     85.30052521
      0.06666670	     -1.85866642	     -1.73264320	      2.23202527	      0.29021304	      0.85624071	     -0.15871338	     12.68594933	     -6.56976834	     -6.47094874	     26.17033737	      0.45675855	      2.87439490	    -15.81813412	     -7.09308066	      3.28915756	      4.55830778	     -9.40538939	      7.85668785	      0.13712507	      9.91030623	     -0.66089237	     -7.09308066	     -2.03090853	     -3.29791903	      3.96291065	     82.68240197	      7.49866368	     66.69220926	    124.89711806	    100.51391593	     70.57183856	      7.45861523	     57.50201131	    122.28015030	     83.49952745
      0.08333330	     -2.00572620	     -1.50783131	      1.93074706	      0.29212615	      0.85656162	     -0.15788758	     12.79261049	     -6.62816036	     -6.26954334	     25.36921172	      0.44277627	      3.51119605	    -15.21540048	     -7.17424099	      3.10441380	      4.80750789	     -9.44180287	      7.37038553	      0.12863749	      9.70513363	     -0.60689555	     -7.17424099	     -1.48464662	     -3.58278344	      3.49372500	     82.19361799	      8.55820662	     68.04556888	    124.00303014	    102.61663114	     69.78735640	      6.72600773	     58.02600189	    122.43601824	     78.75004740
      0.10000000	     -2.22515434	     -1.50369905	      1.75541648	      0.29269711	      0.85605924	     -0.15869620	     12.98436139	     -6.55915656	     -6.08167847	     24.19913479	      0.42235458	      3.56499677	    -14.94821874	     -7.19174782	      3.07452964	      4.80547773	     -9.25410433	      7.03561651	      0.12279467	      9.60031560	     -0.70271101	     -7.19174782	     -1.20500576	     -3.70154550	      3.23592249	     81.68530177	      8.94972896	     69.05671583	    123.90800474	    102.14732646	     69.15848220	      6.80508345	     57.79960164	    123.52517632	     77.78574469
      0.11666670	     -2.15545460	     -1.50055689	      1.57384552	      0.29372440	      0.85638467	     -0.15883023	     12.82384032	     -6.49063250	     -6.21513834	     22.72020773	      0.39654243	      3.00439897	    -14.14519489	     -7.22173163	      2.75073840	      4.76443235	     -9.38337896	      6.68442600	      0.11666524	      9.04351468	     -0.89417362	     -7.22173163	     -1.34335972	     -3.71588182	      2.78580899	     81.43196567	      9.69079132	     69.54374238	    123.22403101	    101.37003716	     68.57713848	      6.82813548	     57.40741316	    125.01787203	     76.72772900
      0.13333330	     -2.41616665	     -1.52311244	      1.42818104	      0.29127416	      0.85744852	     -0.16027849	     13.04170306	     -6.47246766	     -6.46844567	     21.14642308	      0.36907471	      2.17107575	    -13.08525932	     -7.23925455	      2.92905896	      4.76639053	     -9.26242495	      6.43898180	      0.11238143	      8.74927098	     -0.92411472	     -7.23925455	     -1.22231061	     -3.77425789	      3.11552654	     80.96872044	      8.90721300	     69.32883766	    122.36040668	    100.07260949	     68.42342727	      7.03149652	     57.03784072	    124.42701835	     76.25401897
      0.15000000	     -2.09724131	     -1.60881154	      1.46204956	      0.29178402	      0.86088224	     -0.16111302	     12.47801610	     -6.40775288	     -7.25514313	     19.11892831	      0.33368825	      1.14939728	    -11.65277955	     -7.25188137	      2.56580847	      4.72554136	     -9.03320587	      6.25221648	      0.10912176	      8.26472511	     -1.13116257	     -7.25188137	     -1.79349468	     -3.71497746	      3.29010893	     80.47498595	      8.09594082	     68.79444538	    121.94285339	     98.90579218	     68.37119087	      7.30738074	     57.35309611	    123.14043744	     75.20326640
      0.16666670	     -2.31861278	     -1.62865588	      1.29527710	      0.29058397	      0.86032152	     -0.16086252	     12.66217984	     -6.24393901	     -7.41988942	     17.33830249	      0.30261047	      0.03390253	    -10.87359438	     -7.26277520	      2.83623303	      4.75456917	     -9.03248740	      6.24788731	      0.10904620	      8.05050506	     -1.30331345	     -7.26277520	     -1.75198274	     -3.70880081	      3.67553806	     79.99373976	      7.62874329	     68.44789671	    121.95302250	     98.28020628	     68.22812064	      7.29523511	     57.68275380	    122.00485889	     74.63351345
      0.18333330	     -2.11642034	     -1.67357164	      1.10372942	      0.29154902	      0.86050642	     -0.16081009	     12.37107792	     -6.12611422	     -8.11834654	     15.62480006	      0.27270421	     -0.71975411	     -9.43351661	     -7.32499315	      2.52373395	      4.73535298	     -9.14876159	      6.05152639	      0.10561906	      7.81755762	     -1.44313537	     -7.32499315	     -2.09106000	     -3.86830399	      4.17948674	     79.76701697	      7.12834214	     67.66147015	    122.83585329	    100.59706561	     68.57126969	      7.59685128	     58.45123841	    120.14613547	     75.26641761
      0.20000000	     -2.17182522	     -1.77192668	      0.98039209	      0.28928083	      0.85543849	     -0.16172948	     12.53843639	     -5.95564930	     -8.49942654	     14.19745694	      0.24779237	     -1.30726569	     -8.47863745	     -7.32779721	      2.58674041	      4.67216063	     -9.11016901	      6.07967264	      0.10611031	      7.96702954	     -1.65945896	     -7.32779721	     -2.11893210	     -3.64630709	      4.22576385	     80.01265109	      7.34819169	     67.28069755	    123.13617725	    100.48966209	     68.98849328	      7.10354205	     58.41149585	    117.83622294	     75.20022174
      0.21666670	     -2.01391589	     -1.79464760	      0.67723422	      0.29197121	      0.85510941	     -0.16126333	     12.43774774	     -5.82876093	     -8.96136103	     12.98729449	      0.22667105	     -1.21072198	     -6.73535732	     -7.33537066	      2.32724474	      4.68375017	     -8.66248629	      6.05387304	      0.10566002	      7.92444716	     -2.27697377	     -7.33537066	     -2.18285167	     -3.74973709	      4.46971251	     80.01965739	      7.54705943	     66.73985552	    124.03879166	     98.92385765	     69.16614918	      7.12322867	     58.48337588	    116.31178229	     73.99901179
      0.23333330	     -2.05060054	     -1.85690267	      0.41813568	      0.29348386	      0.85695513	     -0.15969497	     12.47301688	     -5.59796200	     -9.24294018	     11.71411133	      0.20444981	     -1.58652789	     -5.39007371	     -7.34014590	      2.18754459	      4.56474056	     -8.82010103	      5.99600897	      0.10465010	      7.77987115	     -2.42116483	     -7.34014590	     -2.19053313	     -3.79995588	      4.37679639	     80.08815051	      8.09554951	     66.67985319	    124.71830487	     98.97783442	     68.91592065	      7.16488899	     58.28664594	    117.82864678	     73.57917387
      0.25000000	     -1.99957194	     -2.00199367	      0.12955964	      0.29434739	      0.85365741	     -0.15949744	     12.34086643	     -5.25707522	     -9.41300693	     10.53165448	      0.18381205	     -1.66405602	     -3.74122267	     -7.35327647	      1.97449960	      4.35154528	     -8.73673352	      5.98100585	      0.10438824	      7.87593934	     -2.58583268	     -7.35327647	     -2.15189502	     -3.72175089	      4.30943777	     80.21419461	      8.66410929	     66.48736301	    124.94300633	     98.28022676	     68.82574074	      7.00336105	     57.97781064	    118.20250985	     73.07685471
